<svg id="圖層_1" data-name="圖層 1" xmlns="http://www.w3.org/2000/svg" viewBox="0 0 152 62.38"><defs><style>.cls-1{fill:#f39618;}.cls-2{fill:#ea5b50;}</style></defs><title>logo_small</title><path class="cls-1" d="M229.54,419.45h.83A22.24,22.24,0,0,0,252,397.23l0,0h-22.4a0,0,0,0,0,0,0Z" transform="translate(-221.55 -389.26)"/><path class="cls-1" d="M275.58,419.46H276a0,0,0,0,0,0,0V397.23a0,0,0,0,0,0,0H254l0,0a22.24,22.24,0,0,0,21.62,22.23Z" transform="translate(-221.55 -389.26)"/><path class="cls-1" d="M230.37,421.44h-.83v22.2a0,0,0,0,0,0,0H252a0,0,0,0,0,0,0A22.24,22.24,0,0,0,230.37,421.44Z" transform="translate(-221.55 -389.26)"/><path class="cls-1" d="M276,421.44h-.4A22.24,22.24,0,0,0,254,443.64a0,0,0,0,0,0,0h22a0,0,0,0,0,0,0V421.47A0,0,0,0,0,276,421.44Z" transform="translate(-221.55 -389.26)"/><rect class="cls-2" x="30.35" width="2.15" height="6.66"/><rect class="cls-2" x="30.35" y="55.71" width="2.15" height="6.66"/><rect class="cls-2" x="55.88" y="30.11" width="6.66" height="2.15"/><rect class="cls-2" y="30.11" width="6.66" height="2.15"/><circle class="cls-2" cx="31.32" cy="31.19" r="3.57"/><path class="cls-1" d="M288.23,429.13V411h12.4v3.06h-8.74v4.28h7.55v3.06h-7.55v7.68Z" transform="translate(-221.55 -389.26)"/><path class="cls-1" d="M302.66,420.31a11.5,11.5,0,0,1,.83-4.64,8.51,8.51,0,0,1,1.68-2.48,7,7,0,0,1,2.34-1.63,9.93,9.93,0,0,1,3.9-.72,8.49,8.49,0,0,1,6.39,2.48,11.08,11.08,0,0,1,0,13.75,8.42,8.42,0,0,1-6.36,2.47,8.51,8.51,0,0,1-6.41-2.46A9.34,9.34,0,0,1,302.66,420.31Zm3.76-.12a6.77,6.77,0,0,0,1.42,4.66,4.88,4.88,0,0,0,7.18,0,6.92,6.92,0,0,0,1.4-4.72,6.8,6.8,0,0,0-1.36-4.64,5,5,0,0,0-7.26,0A6.83,6.83,0,0,0,306.42,420.19Z" transform="translate(-221.55 -389.26)"/><path class="cls-1" d="M334.85,422.48l3.54,1.12a7.94,7.94,0,0,1-2.71,4.4A8.52,8.52,0,0,1,325,427a9.42,9.42,0,0,1-2.32-6.73,9.88,9.88,0,0,1,2.33-7,8,8,0,0,1,6.13-2.5,7.52,7.52,0,0,1,5.39,2,7.13,7.13,0,0,1,1.85,3.33l-3.61.86a3.74,3.74,0,0,0-3.81-3,4.11,4.11,0,0,0-3.26,1.44q-1.25,1.44-1.25,4.67,0,3.43,1.23,4.88a4,4,0,0,0,3.21,1.46,3.66,3.66,0,0,0,2.5-.93A5.37,5.37,0,0,0,334.85,422.48Z" transform="translate(-221.55 -389.26)"/><path class="cls-1" d="M341.5,411h3.65v9.79a20.31,20.31,0,0,0,.14,3,2.93,2.93,0,0,0,1.12,1.78,3.89,3.89,0,0,0,2.41.67,3.68,3.68,0,0,0,2.34-.64,2.51,2.51,0,0,0,.95-1.56,20.34,20.34,0,0,0,.16-3.07V411h3.65v9.5a24.4,24.4,0,0,1-.3,4.6,5.11,5.11,0,0,1-1.09,2.27,5.53,5.53,0,0,1-2.13,1.47,9.25,9.25,0,0,1-3.48.55,10,10,0,0,1-3.93-.6,5.61,5.61,0,0,1-2.11-1.55,5,5,0,0,1-1-2,22,22,0,0,1-.36-4.59Z" transform="translate(-221.55 -389.26)"/><path class="cls-1" d="M358.84,423.25l3.55-.35a4.33,4.33,0,0,0,1.3,2.63,3.93,3.93,0,0,0,2.64.84,4.07,4.07,0,0,0,2.66-.75,2.22,2.22,0,0,0,.89-1.75,1.65,1.65,0,0,0-.38-1.09,3,3,0,0,0-1.31-.78q-.64-.22-2.92-.79a9.92,9.92,0,0,1-4.12-1.79,4.7,4.7,0,0,1-1.67-3.64,4.65,4.65,0,0,1,.78-2.58,4.9,4.9,0,0,1,2.26-1.83,9,9,0,0,1,3.56-.63,7.64,7.64,0,0,1,5.13,1.49,5.27,5.27,0,0,1,1.81,4l-3.65.16a3.1,3.1,0,0,0-1-2,3.68,3.68,0,0,0-2.31-.61,4.17,4.17,0,0,0-2.49.65,1.32,1.32,0,0,0-.58,1.12,1.39,1.39,0,0,0,.54,1.1,9.6,9.6,0,0,0,3.35,1.21,17.74,17.74,0,0,1,3.94,1.3,5.1,5.1,0,0,1,2,1.84,5.39,5.39,0,0,1,.72,2.88,5.32,5.32,0,0,1-.86,2.91,5.17,5.17,0,0,1-2.44,2,10.24,10.24,0,0,1-3.93.66,7.83,7.83,0,0,1-5.27-1.58A6.89,6.89,0,0,1,358.84,423.25Z" transform="translate(-221.55 -389.26)"/></svg>